<svg width="230" height="32" viewBox="0 0 230 32" fill="none" xmlns="http://www.w3.org/2000/svg">
<path d="M0 28.7369C2.86641 13.7089 13.9208 3.31729 19.0897 0C20.5931 2.90563 22.3367 14.3264 21.6981 22.0101C15.0139 24.2157 5.08829 30.5652 0 28.7369Z" fill="url(#paint0_linear_3047_35938)"/>
<path d="M19.0889 0C29.7148 9.94016 33.9362 24.5167 34.7186 30.5625L21.6974 22.0101C22.3359 14.3264 20.5924 2.90563 19.0889 0Z" fill="url(#paint1_linear_3047_35938)"/>
<path d="M34.7194 30.5626C12.4299 33.8603 2.28583 30.7196 0 28.7371C5.08829 30.5653 15.0138 24.2158 21.6981 22.0103L34.7194 30.5626Z" fill="url(#paint2_linear_3047_35938)"/>
<g clip-path="url(#clip0_3047_35938)">
<path d="M69.9293 11.0368C69.4905 9.52675 68.7326 8.26161 67.6158 7.11889C66.5388 5.97618 65.1028 5.07833 63.268 4.42535C61.5129 3.77237 59.3191 3.44588 56.7263 3.44588V3.36426H42.6858V28.1775H56.5269C59.0797 28.1775 61.2736 27.851 63.0685 27.198C64.9034 26.545 66.3792 25.6064 67.4562 24.4637C68.5731 23.3209 69.4107 21.9742 69.8894 20.4234C70.4079 18.9541 70.6472 17.4033 70.6472 15.7301C70.6472 14.0568 70.4079 12.5468 69.9293 11.0368ZM47.9909 8.13917H56.4072C58.0825 8.13917 59.5185 8.34323 60.7151 8.79215C61.8719 9.20026 62.7893 9.77162 63.4275 10.4654C64.1455 11.2408 64.5843 12.0162 64.8635 12.8733C65.1427 13.8119 65.3023 14.7914 65.3023 15.7301C65.3023 16.6687 65.1427 17.689 64.8635 18.6277C64.6242 19.5255 64.1455 20.3417 63.4275 21.1171C62.7494 21.8517 61.832 22.4231 60.7151 22.872C59.6382 23.2801 58.1623 23.525 56.4072 23.525H47.9909V8.13917Z" fill="#FCFCFD"/>
<path d="M97.1723 3.4458V17.24C97.1723 19.0357 96.8133 20.4641 96.1352 21.4844C95.3773 22.4638 94.42 23.1168 93.2234 23.4433C92.0667 23.7698 90.6307 23.9738 88.9953 23.9738C87.3599 23.9738 85.884 23.8106 84.6076 23.4433C83.3711 23.076 82.3739 22.423 81.6958 21.4844C80.9778 20.5049 80.6188 19.1173 80.6188 17.24V3.4458H75.3137V17.7705C75.3137 19.3214 75.553 20.7498 75.9918 22.0557C76.4705 23.3209 77.1486 24.3412 77.9463 25.1982C78.784 26.0552 79.7812 26.749 80.898 27.2796C81.9351 27.7693 83.1318 28.1366 84.6475 28.3815C86.1233 28.5855 87.5194 28.708 88.9554 28.708C90.5908 28.708 91.9071 28.5855 93.1037 28.3815C94.42 28.1366 95.6167 27.7693 96.7734 27.2796C97.8903 26.7898 98.8875 26.096 99.8049 25.1982C100.682 24.3003 101.321 23.2392 101.759 22.0557C102.238 20.8314 102.477 19.403 102.477 17.7705V3.4458H97.1723Z" fill="#FCFCFD"/>
<path d="M143.642 23.6068V3.40527H138.337V28.1777H159.438V23.6068H143.642Z" fill="#FCFCFD"/>
<path d="M170.726 3.4458H165.381V28.259H170.726V3.4458Z" fill="#FCFCFD"/>
<path d="M175.632 3.4458V8.01666H185.724V28.2182H191.029V8.01666H201.12V3.4458H175.632Z" fill="#FCFCFD"/>
<path d="M223.777 3.4458L216.717 15.3219L209.537 3.4458H203.355L214.005 20.3825V28.1774H219.35V20.3825L230 3.4458H223.777Z" fill="#FCFCFD"/>
<path d="M131.101 15.4769C129.286 10.9265 124.711 6.1475 119.717 3.58863L119.55 3.50293L119.378 3.58863C114.548 6.0822 110.176 10.7469 108.234 15.4729C106.363 20.1498 106.064 25.4104 106.183 27.7734V28.1774H111.05V27.7285C111.01 26.2389 111.157 23.5821 111.692 20.9375H127.643C128.229 23.6596 128.357 26.2838 128.281 27.7325V28.1733H133.148V27.7815C133.307 24.684 132.733 19.5091 131.097 15.4729L131.101 15.4769ZM126.016 16.0728H113.279C114.755 12.9548 116.945 10.4572 119.63 8.82471C122.322 10.4164 124.524 12.914 126.016 16.0728Z" fill="#FCFCFD"/>
</g>
<defs>
<linearGradient id="paint0_linear_3047_35938" x1="38.5969" y1="40.2289" x2="2.23147" y2="20.5938" gradientUnits="userSpaceOnUse">
<stop stop-color="#8C6BE8"/>
<stop offset="0.598958" stop-color="#1B83FF"/>
<stop offset="1" stop-color="#27E09D"/>
</linearGradient>
<linearGradient id="paint1_linear_3047_35938" x1="30.9524" y1="11.6819" x2="19.0793" y2="20.3957" gradientUnits="userSpaceOnUse">
<stop stop-color="#4D7CF4"/>
<stop offset="0.919859" stop-color="#5031A0"/>
</linearGradient>
<linearGradient id="paint2_linear_3047_35938" x1="34.7193" y1="28.1224" x2="25.6324" y2="47.726" gradientUnits="userSpaceOnUse">
<stop stop-color="#3C58EF"/>
<stop offset="1" stop-color="#6338D3"/>
</linearGradient>
<clipPath id="clip0_3047_35938">
<rect width="187.314" height="25.3438" fill="white" transform="translate(42.6858 3.36426)"/>
</clipPath>
</defs>
</svg>
